<svg height="512pt" viewBox="0 -44 512.00032 512" width="512pt" xmlns="http://www.w3.org/2000/svg"><g fill="#9edd2f"><path d="m501.550781 135.835938-81.890625-125.386719 81.832032 125.386719zm0 0"/><path d="m92.613281 10.535156-82.152343 125.300782h.375zm0 0"/><path d="m201.480469 93.992188 54.519531-83.542969h-109.042969zm0 0"/><path d="m419.660156 10.449219h-109.371094l54.6875 83.792969zm0 0"/></g><path d="m362.921875 241.9375-22.523437 75.636719 161.152343-181.738281h-107.035156l-13.15625 44.183593zm0 0" fill="#45ad02"/><path d="m174.167969 135.835938h-99.980469l150.53125 169.761718zm0 0" fill="#45ad02"/><path d="m306.238281 241.9375 18.4375-61.917969 13.15625-44.183593h-102.710937l51.355468 172.460937zm0 0" fill="#9edd2f"/><path d="m231.28125 135.585938.164062.25h106.386719l-53.359375-81.757813zm0 0" fill="#45ad02"/><path d="m394.777344 135.835938h106.714844l-53.359376-81.757813zm0 0" fill="#45ad02"/><path d="m121.140625 54.078125-53.355469 81.757813h106.710938l-.164063-.25zm0 0" fill="#45ad02"/><path d="m511.082031 131.550781c-.226562-.5-.507812-.960937-.808593-1.40625.011718-.007812.015624-.015625.027343-.023437l-81.832031-125.292969-.058594-.089844v-.003906c-1.929687-2.953125-5.222656-4.734375-8.75-4.734375h-326.992187c-3.523438 0-6.808594 1.773438-8.738281 4.71875l-.011719.019531-.046875.070313-82.148438 125.300781c.003906 0 .003906.003906.007813.003906-.304688.457031-.582031.929688-.8125 1.4375-1.683594 3.75-1.0156252 8.144531 1.714843 11.21875l245.550782 276.921875c1.980468 2.234375 4.828125 3.515625 7.816406 3.515625s5.835938-1.28125 7.816406-3.515625l245.550782-276.921875c2.730468-3.078125 3.402343-7.46875 1.714843-11.21875zm-173.25-14.832031-62.535156-95.820312h125.066406zm-19.296875 8.667969h-125.070312l62.535156-95.816407zm-81.832031-104.488281-62.371094 95.566406-62.367187-95.566406zm-144.035156 8.671874 62.535156 95.820313h-125.070313zm-58.988281 116.714844h132.699218l67.09375 225.3125zm244.847656 225.3125 37.722656-126.679687c1.648438-5.53125-1.5-11.347657-7.03125-12.996094s-11.351562 1.503906-12.996094 7.03125l-40.222656 135.078125-67.816406-227.746094h135.632812l-9.15625 30.75c-1.644531 5.53125 1.5 11.351563 7.03125 12.996094 5.53125 1.648438 11.351563-1.5 12.996094-7.03125l10.933594-36.714844h132.699218zm78.601562-246.210937 62.53125-95.820313 62.535156 95.820313zm0 0"/><path d="m315.429688 221.515625c-.964844 0-1.949219-.136719-2.925782-.421875-5.539062-1.613281-8.722656-7.410156-7.105468-12.949219l.003906-.011719c1.613281-5.539062 7.414062-8.722656 12.953125-7.105468 5.542969 1.613281 8.722656 7.417968 7.105469 12.957031-1.328126 4.5625-5.503907 7.53125-10.03125 7.53125zm0 0"/></svg>