<svg xmlns="http://www.w3.org/2000/svg" height="512pt" version="1.1" viewBox="0 0 512.00057 512" width="512pt">
<g id="surface1">
<path d="M 0 256 L 255.996094 0.00390625 L 511.996094 256 L 255.996094 512 Z M 0 256 " style=" stroke:none;fill-rule:nonzero;fill:rgb(32.941176%,72.941176%,98.823529%);fill-opacity:1;" />
<path d="M 256 0 L 256 512 L 512 256 Z M 256 0 " style=" stroke:none;fill-rule:nonzero;fill:rgb(29.019608%,63.921569%,87.058824%);fill-opacity:1;" />
<path d="M 396.15625 240.03125 L 383.101562 255.5 L 272.339844 386.726562 L 256 406.089844 L 242.207031 389.75 L 128.898438 255.5 L 115.84375 240.03125 L 129.277344 225.464844 L 195.023438 154.214844 L 316.980469 154.214844 L 382.722656 225.464844 Z M 396.15625 240.03125 " style=" stroke:none;fill-rule:nonzero;fill:rgb(100%,96.078431%,85.882353%);fill-opacity:1;" />
<path d="M 382.722656 225.464844 L 316.980469 154.214844 L 256 154.214844 L 256 406.089844 L 272.339844 386.726562 L 383.101562 255.5 L 396.15625 240.03125 Z M 382.722656 225.464844 " style=" stroke:none;fill-rule:nonzero;fill:rgb(99.607843%,88.235294%,58.431373%);fill-opacity:1;" />
<path d="M 396.15625 240.03125 L 382.722656 225.464844 L 240.703125 225.464844 L 254.058594 154.214844 L 223.503906 154.214844 L 210.148438 225.464844 L 129.277344 225.464844 L 115.84375 240.03125 L 128.898438 255.5 L 210.71875 255.5 L 242.207031 389.75 L 256 406.089844 L 272.339844 386.726562 L 241.566406 255.5 L 383.101562 255.5 Z M 396.15625 240.03125 " style=" stroke:none;fill-rule:nonzero;fill:rgb(99.215686%,57.647059%,36.078431%);fill-opacity:1;" />
<path d="M 383.101562 255.5 L 396.15625 240.03125 L 382.722656 225.464844 L 256 225.464844 L 256 255.5 Z M 383.101562 255.5 " style=" stroke:none;fill-rule:nonzero;fill:rgb(99.215686%,45.882353%,37.647059%);fill-opacity:1;" />
<path d="M 272.339844 386.726562 L 256 317.058594 L 256 406.089844 Z M 272.339844 386.726562 " style=" stroke:none;fill-rule:nonzero;fill:rgb(99.215686%,45.882353%,37.647059%);fill-opacity:1;" />
</g>
</svg>